<svg width="64" height="64" viewBox="0 0 64 64" fill="none" xmlns="http://www.w3.org/2000/svg">
  <rect x="4" y="4" width="56" height="56" rx="8" fill="#1E2A3A" />
  <path d="M32 24C27.6 24 24 27.6 24 32H21C18.24 32 16 34.24 16 37C16 39.76 18.24 42 21 42H44C46.76 42 49 39.76 49 37C49 34.24 46.76 32 44 32H40C40 27.6 36.4 24 32 24Z" fill="#FFF"/>
  <path d="M24 32C23.44 32 23 31.56 23 31V29C23 26.24 25.24 24 28 24C30.76 24 33 26.24 33 29V31C33 31.56 32.56 32 32 32" fill="#1E2A3A"/>
  <circle cx="32" cy="32" r="29" stroke="#1E2A3A" stroke-width="2"/>
</svg>
